<svg xmlns="http://www.w3.org/2000/svg" viewBox="0 0 600 400">
  <rect width="600" height="400" fill="#0b0f14"/>
  
  <!-- Grid background -->
  <g stroke="#1c2a3a" stroke-width="0.5" opacity="0.3">
    <line x1="0" y1="100" x2="600" y2="100"/>
    <line x1="0" y1="200" x2="600" y2="200"/>
    <line x1="0" y1="300" x2="600" y2="300"/>
    <line x1="150" y1="0" x2="150" y2="400"/>
    <line x1="300" y1="0" x2="300" y2="400"/>
    <line x1="450" y1="0" x2="450" y2="400"/>
  </g>
  
  <!-- Edges -->
  <g stroke="#1c2a3a" stroke-width="1" fill="none">
    <path d="M90,80 L130,100 L170,70"/>
    <path d="M130,100 L160,90"/>
    <path d="M240,120 L280,100 L320,130"/>
    <path d="M320,130 L340,150 L380,140"/>
    <path d="M340,200 L380,220 L420,200"/>
    <path d="M420,250 L460,240 L500,260"/>
    <path d="M500,300 L530,290 L550,310"/>
    <path d="M300,330 L340,340 L380,320"/>
  </g>
  
  <!-- F2Matrix cluster (blue) -->
  <g fill="#5e9cff">
    <circle cx="90" cy="80" r="6"/>
    <circle cx="72" cy="88" r="5"/>
    <circle cx="108" cy="72" r="5"/>
    <circle cx="84" cy="96" r="5"/>
    <circle cx="96" cy="68" r="5"/>
    <circle cx="120" cy="60" r="6"/>
    <circle cx="132" cy="68" r="5"/>
    <circle cx="144" cy="76" r="5"/>
    <circle cx="156" cy="56" r="5"/>
    <circle cx="168" cy="64" r="5"/>
    <circle cx="150" cy="84" r="5"/>
    <circle cx="114" cy="92" r="5"/>
  </g>
  
  <!-- ChainComplex cluster (purple) -->
  <g fill="#c77dff">
    <circle cx="240" cy="120" r="6"/>
    <circle cx="228" cy="128" r="5"/>
    <circle cx="252" cy="112" r="5"/>
    <circle cx="264" cy="136" r="5"/>
    <circle cx="276" cy="120" r="5"/>
    <circle cx="216" cy="144" r="5"/>
    <circle cx="288" cy="104" r="5"/>
  </g>
  
  <!-- HomologyRepr cluster (green) -->
  <g fill="#4ade80">
    <circle cx="330" cy="180" r="6"/>
    <circle cx="342" cy="172" r="5"/>
    <circle cx="360" cy="192" r="5"/>
    <circle cx="318" cy="200" r="5"/>
    <circle cx="348" cy="184" r="5"/>
    <circle cx="372" cy="168" r="5"/>
  </g>
  
  <!-- QuotNucleus cluster (yellow) -->
  <g fill="#fbbf24">
    <circle cx="420" cy="240" r="6"/>
    <circle cx="432" cy="232" r="5"/>
    <circle cx="444" cy="248" r="5"/>
    <circle cx="456" cy="224" r="5"/>
    <circle cx="468" cy="256" r="5"/>
    <circle cx="450" cy="240" r="5"/>
  </g>
  
  <!-- MathlibBridge cluster (pink) -->
  <g fill="#f472b6">
    <circle cx="510" cy="300" r="6"/>
    <circle cx="498" cy="308" r="5"/>
    <circle cx="522" cy="292" r="5"/>
    <circle cx="534" cy="316" r="5"/>
    <circle cx="486" cy="284" r="5"/>
    <circle cx="492" cy="296" r="5"/>
    <circle cx="504" cy="288" r="5"/>
    <circle cx="516" cy="304" r="5"/>
    <circle cx="540" cy="300" r="5"/>
    <circle cx="528" cy="308" r="5"/>
    <circle cx="546" cy="284" r="5"/>
  </g>
  
  <!-- Tests cluster (gray) -->
  <g fill="#a3a3a3">
    <circle cx="300" cy="340" r="5"/>
    <circle cx="312" cy="332" r="5"/>
    <circle cx="324" cy="348" r="5"/>
    <circle cx="336" cy="324" r="5"/>
    <circle cx="348" cy="356" r="5"/>
  </g>
  
  <!-- Title -->
  <text x="300" y="30" text-anchor="middle" fill="#e6eef7" font-family="system-ui" font-size="16" font-weight="600">Homology Nucleus - 2D Proof Map</text>
  
  <!-- Legend -->
  <g transform="translate(30, 360)">
    <circle cx="5" cy="5" r="4" fill="#5e9cff"/>
    <text x="15" y="9" fill="#6b7d8c" font-family="system-ui" font-size="10">F2Matrix</text>
    <circle cx="85" cy="5" r="4" fill="#c77dff"/>
    <text x="95" y="9" fill="#6b7d8c" font-family="system-ui" font-size="10">ChainComplex</text>
    <circle cx="190" cy="5" r="4" fill="#4ade80"/>
    <text x="200" y="9" fill="#6b7d8c" font-family="system-ui" font-size="10">HomologyRepr</text>
    <circle cx="295" cy="5" r="4" fill="#fbbf24"/>
    <text x="305" y="9" fill="#6b7d8c" font-family="system-ui" font-size="10">QuotNucleus</text>
    <circle cx="390" cy="5" r="4" fill="#f472b6"/>
    <text x="400" y="9" fill="#6b7d8c" font-family="system-ui" font-size="10">MathlibBridge</text>
    <circle cx="500" cy="5" r="4" fill="#a3a3a3"/>
    <text x="510" y="9" fill="#6b7d8c" font-family="system-ui" font-size="10">Tests</text>
  </g>
</svg>
