<svg xmlns="http://www.w3.org/2000/svg" viewBox="0 0 800 600">
  <defs>
    <filter id="glowA">
      <feGaussianBlur stdDeviation="3" result="blur"/>
      <feMerge>
        <feMergeNode in="blur"/>
        <feMergeNode in="SourceGraphic"/>
      </feMerge>
    </filter>
  </defs>
  <rect width="800" height="600" fill="#0b0f14"/>

  <!-- Title -->
  <text x="400" y="35" text-anchor="middle" fill="#e6eef7" font-family="monospace" font-size="16" font-weight="600">Homology Nucleus - 3D Proof Map</text>
  <text x="400" y="55" text-anchor="middle" fill="#6b7d8c" font-family="monospace" font-size="11">Auto-rotating view</text>

  <!-- Rotating structure -->
  <g transform="translate(400, 320)">
    <!-- Orbit ellipse -->
    <ellipse cx="0" cy="0" rx="200" ry="60" fill="none" stroke="#1c2a3a" stroke-width="1" opacity="0.4">
      <animateTransform attributeName="transform" type="rotate" from="0" to="360" dur="20s" repeatCount="indefinite"/>
    </ellipse>

    <!-- Rotating edges -->
    <g stroke="#4a9eff" stroke-width="2" opacity="0.4">
      <animateTransform attributeName="transform" type="rotate" from="0" to="360" dur="12s" repeatCount="indefinite"/>
      <line x1="-160" y1="20" x2="-80" y2="-30"/>
      <line x1="-80" y1="-30" x2="0" y2="-50"/>
      <line x1="0" y1="-50" x2="80" y2="-30"/>
      <line x1="80" y1="-30" x2="160" y2="20"/>
      <line x1="-120" y1="40" x2="0" y2="0"/>
      <line x1="0" y1="0" x2="120" y2="40"/>
    </g>

    <!-- F2Matrix cluster -->
    <g>
      <animateTransform attributeName="transform" type="rotate" from="0" to="360" dur="12s" repeatCount="indefinite"/>
      <circle cx="-160" cy="20" r="12" fill="#5e9cff" filter="url(#glowA)"/>
      <circle cx="-140" cy="40" r="8" fill="#5e9cff" opacity="0.7"/>
      <circle cx="-175" cy="0" r="6" fill="#5e9cff" opacity="0.5"/>
    </g>

    <!-- LinearAlgebra cluster -->
    <g>
      <animateTransform attributeName="transform" type="rotate" from="60" to="420" dur="12s" repeatCount="indefinite"/>
      <circle cx="-80" cy="-30" r="13" fill="#c77dff" filter="url(#glowA)"/>
      <circle cx="-60" cy="-50" r="9" fill="#c77dff" opacity="0.7"/>
      <circle cx="-95" cy="-10" r="6" fill="#c77dff" opacity="0.5"/>
    </g>

    <!-- ChainComplex cluster -->
    <g>
      <animateTransform attributeName="transform" type="rotate" from="120" to="480" dur="12s" repeatCount="indefinite"/>
      <circle cx="0" cy="-50" r="14" fill="#4ade80" filter="url(#glowA)"/>
      <circle cx="20" cy="-70" r="10" fill="#4ade80" opacity="0.7"/>
      <circle cx="-20" cy="-35" r="7" fill="#4ade80" opacity="0.5"/>
    </g>

    <!-- HomologyRepr cluster -->
    <g>
      <animateTransform attributeName="transform" type="rotate" from="180" to="540" dur="12s" repeatCount="indefinite"/>
      <circle cx="80" cy="-30" r="13" fill="#fbbf24" filter="url(#glowA)"/>
      <circle cx="100" cy="-50" r="9" fill="#fbbf24" opacity="0.7"/>
      <circle cx="65" cy="-10" r="6" fill="#fbbf24" opacity="0.5"/>
    </g>

    <!-- QuotientNucleus cluster -->
    <g>
      <animateTransform attributeName="transform" type="rotate" from="240" to="600" dur="12s" repeatCount="indefinite"/>
      <circle cx="160" cy="20" r="14" fill="#f472b6" filter="url(#glowA)"/>
      <circle cx="175" cy="0" r="10" fill="#f472b6" opacity="0.7"/>
      <circle cx="145" cy="40" r="6" fill="#f472b6" opacity="0.5"/>
    </g>

    <!-- MathlibBridge cluster -->
    <g>
      <animateTransform attributeName="transform" type="rotate" from="300" to="660" dur="12s" repeatCount="indefinite"/>
      <circle cx="60" cy="50" r="11" fill="#22d3d3" filter="url(#glowA)"/>
      <circle cx="80" cy="70" r="8" fill="#22d3d3" opacity="0.7"/>
      <circle cx="45" cy="35" r="6" fill="#22d3d3" opacity="0.5"/>
    </g>

    <!-- Central Tests node -->
    <circle cx="0" cy="0" r="10" fill="#a3a3a3" filter="url(#glowA)">
      <animate attributeName="r" values="10;12;10" dur="2s" repeatCount="indefinite"/>
    </circle>
  </g>

  <!-- Rotating indicator -->
  <g transform="translate(700, 540)">
    <circle cx="0" cy="0" r="5" fill="#4a9eff">
      <animate attributeName="opacity" values="1;0.3;1" dur="1.5s" repeatCount="indefinite"/>
    </circle>
    <text x="-50" y="4" fill="#6b7d8c" font-family="monospace" font-size="10">rotating</text>
  </g>

  <!-- Legend -->
  <g transform="translate(50, 550)" font-family="monospace" font-size="10">
    <circle cx="0" cy="0" r="5" fill="#5e9cff"/>
    <text x="10" y="4" fill="#6b7d8c">F2Matrix</text>
    <circle cx="80" cy="0" r="5" fill="#c77dff"/>
    <text x="90" y="4" fill="#6b7d8c">LinearAlgebra</text>
    <circle cx="185" cy="0" r="5" fill="#4ade80"/>
    <text x="195" y="4" fill="#6b7d8c">ChainComplex</text>
    <circle cx="290" cy="0" r="5" fill="#fbbf24"/>
    <text x="300" y="4" fill="#6b7d8c">HomologyRepr</text>
    <circle cx="400" cy="0" r="5" fill="#f472b6"/>
    <text x="410" y="4" fill="#6b7d8c">QuotientNucleus</text>
    <circle cx="520" cy="0" r="5" fill="#22d3d3"/>
    <text x="530" y="4" fill="#6b7d8c">MathlibBridge</text>
  </g>
</svg>
